<?xml version="1.0" encoding="UTF-8" standalone="no"?><!DOCTYPE svg PUBLIC "-//W3C//DTD SVG 1.1//EN" "http://www.w3.org/Graphics/SVG/1.1/DTD/svg11.dtd"><svg width="100%" height="100%" viewBox="0 0 802 545" version="1.1" xmlns="http://www.w3.org/2000/svg" xmlns:xlink="http://www.w3.org/1999/xlink" xml:space="preserve" xmlns:serif="http://www.serif.com/" style="fill-rule:evenodd;clip-rule:evenodd;"><g id="g1919"><path id="rect19737" d="M233.743,117.401l-9.202,1.672l6.801,30.292l9.202,-1.672l-6.801,-30.292Z" style="stroke:#000;stroke-width:2.6px;"/><path id="rect21525" d="M345.494,263.92l-55.906,22.342l1.471,3.682l55.906,-22.341l-1.471,-3.683Z" style="fill:#c2c2c2;stroke:#000;stroke-width:1.7px;"/><g id="g19731"><path id="rect19725" d="M268.601,290.541l77.297,58.513l-7.515,10.16l-77.297,-58.514l7.515,-10.159Z" style="fill:#616369;stroke:#000;stroke-width:1.55px;stroke-linejoin:round;"/><path id="rect19727" d="M251.157,299.809l35.692,-18.197l-2.487,14.413l-35.692,18.197l2.487,-14.413Z" style="stroke:#000;stroke-width:3.34px;"/></g><g id="g12606"><path id="path3658" d="M235.617,509.251l-48.343,-52.5l33.798,62.857l-41.379,-58.148l25.649,66.595l-33.762,-62.867l17.103,69.281l-25.619,-66.605l8.285,70.885l-17.069,-69.292l-0.664,71.355l-8.251,-70.885l-9.602,70.722l0.698,-71.365l-18.39,68.954l9.638,-70.711l-26.887,66.105l18.424,-68.945l-34.961,62.214l26.92,-66.095l-42.483,57.352l34.991,-62.204l-49.335,51.571l42.511,-57.321l-55.408,44.972l49.36,-51.54l-60.608,37.68l55.43,-44.952l-64.853,29.784l60.627,-37.649l-68.075,21.419l64.868,-29.753l-70.222,12.726l68.084,-21.388l-71.263,3.82l70.23,-12.686l-71.181,-5.148l71.266,-3.779l-69.975,-14.024l71.178,5.179l-67.665,-22.685l69.968,14.054l-64.288,-30.979l67.653,22.716l-59.897,-38.803l64.272,31.02l-54.563,-46.004l59.879,38.834l-48.367,-52.48l54.54,46.024l-41.41,-58.117l48.342,52.5l-33.798,-62.857l41.381,58.138l-25.654,-66.595l33.767,62.877l-17.104,-69.287l25.62,66.611l-8.286,-70.885l17.07,69.292l0.664,-71.362l8.251,70.892l9.602,-70.721l-0.698,71.364l18.389,-68.958l-9.637,70.715l26.89,-66.109l-18.427,68.948l34.963,-62.213l-26.922,66.085l42.478,-57.342l-34.983,62.203l49.334,-51.57l-42.511,57.321l55.401,-44.972l-49.354,51.54l60.609,-37.68l-55.431,44.952l64.849,-29.784l-60.62,37.649l68.066,-21.419l-64.859,29.753l70.221,-12.726l-68.086,21.388l71.263,-3.82l-70.232,12.686l71.182,5.147l-71.264,3.78l69.977,14.023l-71.182,-5.178l67.668,22.685l-69.976,-14.054l64.297,30.979l-67.658,-22.716l59.895,38.803l-64.266,-31.02l54.563,46.004l-59.885,-38.834l48.374,52.48l-54.543,-46.035l41.408,58.128Z" style="fill-rule:nonzero;stroke:#000;stroke-width:7.76px;"/><path id="path3660" d="M280.378,399.072c0.003,0.397 0.005,0.794 0.005,1.191c0,73.778 -60.712,134.487 -134.493,134.487c-73.781,0 -134.494,-60.709 -134.494,-134.487c0,-0.397 0.002,-0.794 0.005,-1.191c-0.003,-0.397 -0.005,-0.794 -0.005,-1.191c0,-73.777 60.713,-134.486 134.494,-134.486c73.781,0 134.493,60.709 134.493,134.486c0,0.397 -0.002,0.794 -0.005,1.191Z" style="stroke:#000;stroke-width:1.02px;"/><path id="path3662" d="M247.975,399.016c0.002,0.301 0.004,0.602 0.004,0.903c0,55.945 -46.038,101.98 -101.985,101.98c-55.947,0 -101.985,-46.035 -101.985,-101.98c0,-0.301 0.001,-0.602 0.004,-0.903c-0.003,-0.301 -0.004,-0.602 -0.004,-0.903c0,-55.945 46.038,-101.98 101.985,-101.98c55.947,0 101.985,46.035 101.985,101.98c0,0.301 -0.002,0.602 -0.004,0.903Z" style="fill:#fff;stroke:#000;stroke-width:0.77px;"/></g><path id="path14397" d="M317.82,311.58l-184.06,67.81l-6.63,13.25l5.1,17.85l27.02,9.17l-12.24,24.12l4.08,5.96l152.44,-58.63l20.4,5.61l-6.11,-85.14Z" style="fill:none;fill-rule:nonzero;stroke:#000;stroke-width:3px;"/><path id="path14395" d="M160.599,395.076c0.001,0.071 0.001,0.143 0.001,0.214c0,9.66 -8.079,17.608 -17.898,17.608c-9.818,0 -17.898,-7.948 -17.898,-17.608c0,-0.071 0.001,-0.143 0.002,-0.214c-0.001,-0.071 -0.002,-0.143 -0.002,-0.214c0,-9.66 8.08,-17.608 17.898,-17.608c9.819,0 17.898,7.948 17.898,17.608c0,0.071 0,0.143 -0.001,0.214Z" style="fill:#616369;fill-rule:nonzero;stroke:#000;stroke-width:2.18px;stroke-linejoin:round;"/><path id="rect14387" d="M141.78,401.717l-3.685,3.121l13.511,15.95l3.685,-3.122l-13.511,-15.949Z" style="fill:#616369;stroke:#000;stroke-width:1.7px;stroke-linejoin:round;"/><path id="path20638" d="M285.91,357.39c0,0 4.69,-36.49 4.69,-38.61c0,-2.13 -15.5,-36.02 -15.5,-36.02l12.62,-5.4l20.19,32.08l-7.21,46.87l-16.44,1.08l1.65,0Z" style="fill:#c2c2c2;stroke:#000;stroke-width:3px;"/><path id="path12600" d="M525.98,128.23m0,0l-10.11,5.69l-167.58,239.66l-211.72,34.44l-3.92,-23.28l185.17,-36.17l44.61,-63.58l-47.53,-57.17l-78.56,-48.78l-9.49,-41.33l12.82,-0.25l2.06,8.84l80.63,28.09l175.46,-102.44l28.16,56.28Zm-281.99,29.65m0,0c2.53,0 66.63,26.38 66.63,26.38l-0.18,24.43l-63.35,-38.13l-3.1,-12.68Z" style="fill:#ffbb02;stroke:#000;stroke-width:3px;"/><path id="path12604" d="M374.55,269.56l-39.73,-48.76l-0.55,-25.24l152.44,-88.77l-112.16,162.77Z" style="fill:#fff;stroke:#000;stroke-width:3px;"/><path id="path13496" d="M391.007,351.822c0,27.469 -22.706,50.073 -50.299,50.073c-27.592,0 -50.298,-22.604 -50.298,-50.073c0,-27.469 22.706,-50.073 50.298,-50.073c27.593,0 50.299,22.604 50.299,50.073Z" style="fill:#616369;fill-rule:nonzero;stroke:#000;stroke-width:3px;stroke-linejoin:round;"/><path id="path14385" d="M147.726,394.198c0,1.516 -1.249,2.763 -2.768,2.763c-1.519,0 -2.768,-1.247 -2.768,-2.763c0,-1.515 1.249,-2.762 2.768,-2.762c1.519,0 2.768,1.247 2.768,2.762Z" style="fill-rule:nonzero;stroke:#000;stroke-width:3.12px;"/><path id="rect14389" d="M158.522,426.298l-4.53,-1.676l-7.254,19.604l4.529,1.676l7.255,-19.604Z" style="fill:#616369;stroke:#000;stroke-width:1.7px;stroke-linejoin:round;"/><path id="path14391" d="M160.26,422.46c0.002,0.061 0.004,0.123 0.004,0.184c0,2.657 -2.187,4.844 -4.844,4.844c-2.657,0 -4.843,-2.187 -4.843,-4.844c0,-0.061 0.001,-0.123 0.003,-0.184c-0.002,-0.061 -0.003,-0.123 -0.003,-0.184c0,-2.657 2.186,-4.844 4.843,-4.844c2.657,0 4.844,2.187 4.844,4.844c0,0.061 -0.002,0.123 -0.004,0.184Z" style="fill:#616369;fill-rule:nonzero;stroke:#000;stroke-width:3px;stroke-linejoin:round;"/><path id="path14393" d="M156.44,444.47c0.002,0.061 0.003,0.123 0.003,0.184c0,2.657 -2.186,4.844 -4.843,4.844c-2.657,0 -4.844,-2.187 -4.844,-4.844c0,-0.061 0.002,-0.123 0.004,-0.184c-0.002,-0.061 -0.004,-0.123 -0.004,-0.184c0,-2.657 2.187,-4.844 4.844,-4.844c2.657,0 4.843,2.187 4.843,4.844c0,0.061 -0.001,0.123 -0.003,0.184Z" style="fill:#616369;fill-rule:nonzero;stroke:#000;stroke-width:1.7px;stroke-linejoin:round;"/><path id="path17056" d="M311.163,398.348c0,0.03 0.001,0.061 0.001,0.092c0,5.098 -4.195,9.293 -9.293,9.293c-5.098,0 -9.293,-4.195 -9.293,-9.293c0,-0.031 0,-0.062 0,-0.092c0,-0.031 0,-0.062 0,-0.092c0,-5.098 4.195,-9.293 9.293,-9.293c5.098,0 9.293,4.195 9.293,9.293c0,0.03 -0.001,0.061 -0.001,0.092Z" style="fill:#ffbb02;fill-rule:nonzero;stroke:#000;stroke-width:2.28px;stroke-linejoin:round;"/><path id="path17943" d="M320.36,297.25l5.1,12.29l-23.46,20.9l-9.17,-6.63l2.03,-16.56l25.5,-10Z" style="stroke:#000;stroke-width:1px;"/><g id="g19719"><path id="rect18830" d="M419.043,403.085l-78.37,-60.195l-7.71,10.038l78.37,60.195l7.71,-10.038Z" style="fill:#616369;stroke:#000;stroke-width:3px;stroke-linejoin:round;"/><path id="rect18832" d="M414.993,422.606l7.546,-39.736l-13.24,6.239l-7.546,39.736l13.24,-6.239Z" style="stroke:#000;stroke-width:4.2px;"/></g><path id="path20630" d="M335.9,260.45c0.01,0.05 2.13,-1.87 2.14,-1.82c0.03,0.12 -1.27,2 -1.23,2.12c0.05,0.2 1.42,-1.37 1.47,-1.18c0.06,0.24 0.1,0.48 0.16,0.72c0.05,0.29 0.12,0.58 0.18,0.86l0.24,1.05c0.09,0.42 0.19,0.84 0.29,1.26c0.11,0.48 0.23,0.97 0.35,1.46c0.14,0.55 0.29,1.1 0.43,1.65c0.18,0.56 0.24,1.09 0.36,1.63c0.09,0.43 0.03,0.74 0.04,1.1c-0.02,0.35 -0.02,0.71 -0.03,1.06l-0.03,1.2c-0.01,0.43 -0.02,0.84 -0.04,1.27c0,0.45 -0.05,0.84 -0.08,1.26c-0.03,0.44 -0.13,0.77 -0.2,1.16c-0.06,0.36 -0.21,0.6 -0.32,0.9c-0.31,2.4 -1.79,2.56 -2.67,3.8c-0.18,0.16 -0.41,0.14 -0.62,0.21c-0.21,0.03 -0.46,-0.07 -0.69,-0.1c-0.23,-0.03 -0.49,-0.26 -0.74,-0.39c-0.25,-0.16 -0.51,-0.49 -0.77,-0.74c-0.27,-0.28 -0.52,-0.64 -0.78,-0.96c-0.28,-0.35 -0.53,-0.79 -0.79,-1.18c-0.29,-0.44 -0.55,-0.96 -0.82,-1.44c-0.31,-0.55 -0.58,-1.15 -0.86,-1.72c-0.3,-0.62 -0.57,-1.25 -0.86,-1.88c-0.28,-0.6 -0.51,-1.23 -0.76,-1.84c-0.21,-0.54 -0.39,-1.08 -0.59,-1.62c-0.16,-0.42 -0.28,-0.86 -0.42,-1.29c-0.1,-0.29 -0.19,-0.59 -0.29,-0.89c-0.05,-0.17 -0.1,-0.34 -0.15,-0.52c-0.04,-0.15 -0.12,-0.29 -0.18,-0.44c0.76,-1.06 1.22,0.35 1.98,-0.71c0.1,0.13 -0.33,1.12 -0.05,0.6c0.59,-1.06 0.81,-1.12 0.79,-0.95c-0.09,1.38 0.18,-0.67 0.26,-0.43c0.1,0.31 0.19,0.62 0.29,0.93c0.13,0.38 0.22,0.77 0.32,1.15c0.12,0.42 0.2,0.84 0.3,1.26c0.1,0.45 0.18,0.89 0.27,1.33c0.09,0.48 0.15,0.94 0.23,1.41c0.09,0.5 0.13,0.98 0.19,1.47c0.06,0.51 0.09,1.01 0.13,1.51c0.06,0.53 0.07,1.01 0.1,1.52c0.03,0.5 -0.02,0.93 -0.02,1.4c-0.02,0.46 -0.09,0.85 -0.14,1.27c-0.05,0.43 -0.17,0.78 -0.25,1.16c-0.1,0.39 -0.24,0.7 -0.36,1.05c-0.13,0.35 -0.3,0.63 -0.46,0.95c-0.84,1.49 -1.81,2.74 -2.73,4.09c-0.18,0.28 -0.43,0.42 -0.65,0.62c-0.21,0.19 -0.48,0.2 -0.72,0.3c-0.24,0.07 -0.52,-0.01 -0.78,-0.01c-0.27,-0.02 -0.56,-0.17 -0.84,-0.26c-0.28,-0.09 -0.59,-0.35 -0.88,-0.52c-0.29,-0.2 -0.59,-0.51 -0.88,-0.77c-0.31,-0.28 -0.61,-0.65 -0.91,-0.98c-0.3,-0.31 -0.58,-0.77 -0.86,-1.16c-0.25,-0.35 -0.47,-0.76 -0.71,-1.14c-0.24,-0.42 -0.46,-0.87 -0.7,-1.3c-0.24,-0.46 -0.45,-0.96 -0.68,-1.44c-0.23,-0.48 -0.42,-0.98 -0.64,-1.47c-0.2,-0.5 -0.37,-1.01 -0.56,-1.51c-0.15,-0.44 -0.28,-0.88 -0.43,-1.31c-0.1,-0.32 -0.21,-0.63 -0.31,-0.94c-0.07,-0.2 -0.14,-0.4 -0.21,-0.61c-0.02,-0.05 -0.03,-0.1 -0.04,-0.15c1.09,2.31 1.66,-1.82 2.36,-2.99c-0.04,0.03 0.01,0.18 0.02,0.25c0.03,0.2 0.08,0.4 0.12,0.6c0.06,0.28 0.13,0.56 0.19,0.84c0.09,0.35 0.17,0.71 0.26,1.06c0.11,0.44 0.21,0.88 0.31,1.31c0.11,0.48 0.19,0.96 0.29,1.43c0.1,0.49 0.15,0.96 0.23,1.44c0.07,0.5 0.1,0.97 0.15,1.45c0.05,0.49 0.03,0.93 0.05,1.39c0.01,0.47 -0.06,0.85 -0.1,1.27c-0.03,0.43 -0.12,0.79 -0.18,1.19c-0.07,0.39 -0.18,0.72 -0.27,1.08c-0.09,0.39 -0.21,0.73 -0.31,1.09c-0.11,0.37 -0.27,0.67 -0.4,1c-0.77,1.59 -1.76,2.81 -2.66,4.16c-0.18,0.27 -0.41,0.44 -0.61,0.65c-0.19,0.24 -0.47,0.26 -0.71,0.38c-0.22,0.1 -0.49,0.03 -0.74,0.04c-0.24,0.01 -0.51,-0.16 -0.77,-0.24c-0.25,-0.1 -0.52,-0.34 -0.78,-0.51c-0.27,-0.18 -0.53,-0.56 -0.79,-0.83c-0.26,-0.3 -0.5,-0.66 -0.75,-0.98c-0.27,-0.35 -0.51,-0.76 -0.77,-1.14c-0.26,-0.4 -0.51,-0.85 -0.76,-1.28c-0.27,-0.46 -0.52,-0.95 -0.78,-1.42c-0.27,-0.5 -0.52,-1.03 -0.78,-1.54c-0.27,-0.54 -0.52,-1.11 -0.78,-1.66c-0.24,-0.55 -0.49,-1.09 -0.74,-1.64c-0.18,-0.41 -0.39,-0.79 -0.58,-1.19c-0.12,-0.26 -0.27,-0.45 -0.41,-0.67c-0.08,-0.15 -0.18,-0.17 -0.26,-0.25c-0.12,-0.14 -0.05,0.12 -0.08,0.17c1.22,0.42 1.5,-1.07 2.18,-2.13c0.02,0.24 -0.03,-0.52 0.01,-0.27c0.07,0.35 0.15,0.7 0.22,1.05c0.08,0.4 0.17,0.8 0.26,1.2l0.3,1.35c0.11,0.49 0.23,0.99 0.34,1.48c0.13,0.55 0.24,1.09 0.36,1.64c0.13,0.55 0.18,1.07 0.27,1.61c0.09,0.52 0.09,0.98 0.13,1.47c0.03,0.49 -0.01,0.9 -0.01,1.35c-0.01,0.44 -0.1,0.81 -0.14,1.21c-0.06,0.41 -0.17,0.74 -0.26,1.11c-0.08,0.36 -0.23,0.61 -0.35,0.92c-0.78,1.52 -1.74,2.74 -2.62,4.06c-0.18,0.23 -0.41,0.38 -0.61,0.57c-0.2,0.21 -0.48,0.23 -0.72,0.35c-0.28,0.07 -0.6,0 -0.9,-0.01c-0.32,0 -0.67,-0.14 -1,-0.22c-0.32,-0.09 -0.67,-0.29 -1.01,-0.45c-0.33,-0.16 -0.68,-0.45 -1.03,-0.69c-0.34,-0.24 -0.68,-0.59 -1.02,-0.89c-0.34,-0.31 -0.67,-0.71 -1.01,-1.07c-0.33,-0.37 -0.66,-0.81 -0.99,-1.22c-0.33,-0.42 -0.64,-0.91 -0.97,-1.37c-0.31,-0.45 -0.6,-0.99 -0.9,-1.49c-0.28,-0.47 -0.52,-1 -0.78,-1.49c-0.24,-0.47 -0.45,-0.98 -0.67,-1.47c-0.1,-0.24 -0.2,-0.49 -0.3,-0.73l2.29,-3.16c0.09,0.23 0.18,0.46 0.28,0.69c0.2,0.46 0.39,0.94 0.62,1.38c0.24,0.47 0.47,0.97 0.73,1.42c0.28,0.46 0.55,0.97 0.85,1.38c0.31,0.43 0.61,0.9 0.93,1.3c0.32,0.38 0.63,0.81 0.95,1.15c0.32,0.33 0.64,0.71 0.96,0.99c0.33,0.27 0.66,0.6 0.98,0.81c0.33,0.2 0.66,0.47 0.98,0.6c0.32,0.13 0.65,0.31 0.96,0.37c0.32,0.06 0.65,0.17 0.95,0.15c0.28,-0.03 0.59,0.03 0.84,-0.12c0.22,-0.15 0.47,-0.21 0.66,-0.44c0.18,-0.22 0.4,-0.37 0.56,-0.66c-3.71,5.6 -2.49,3.8 -1.7,2.54c0.13,-0.27 0.29,-0.5 0.39,-0.83c0.1,-0.34 0.22,-0.64 0.29,-1.02c0.06,-0.37 0.15,-0.71 0.18,-1.12c0.02,-0.41 0.08,-0.79 0.06,-1.24c-0.02,-0.45 -0.01,-0.87 -0.07,-1.36c-0.07,-0.5 -0.11,-0.98 -0.22,-1.5c-0.11,-0.53 -0.21,-1.06 -0.34,-1.59c-0.11,-0.5 -0.23,-0.99 -0.34,-1.49c-0.1,-0.45 -0.21,-0.9 -0.31,-1.35c-0.09,-0.41 -0.18,-0.81 -0.27,-1.22c-0.07,-0.35 -0.15,-0.7 -0.22,-1.06c-0.06,-0.28 -0.12,-0.57 -0.18,-0.86c0.38,-0.71 -0.42,-5 4.05,0.77c0.12,0.09 -1.69,-4.46 -1.57,-4.32c0.13,0.17 -0.12,1.32 0,1.54c0.16,0.28 0.75,-0.49 0.89,-0.18c0.2,0.42 0.42,0.82 0.61,1.25c0.24,0.55 0.5,1.1 0.74,1.65c0.25,0.54 0.5,1.09 0.76,1.62c0.25,0.5 0.49,1.01 0.76,1.5c0.25,0.45 0.49,0.92 0.75,1.36c0.24,0.41 0.48,0.84 0.73,1.22c0.24,0.35 0.47,0.74 0.72,1.06c0.24,0.3 0.47,0.63 0.72,0.9c0.22,0.21 0.45,0.54 0.68,0.64c0.23,0.13 0.49,0.33 0.71,0.39c0.23,0.04 0.48,0.15 0.7,0.12c0.22,-0.05 0.47,-0.01 0.67,-0.15c0.21,-0.16 0.46,-0.25 0.63,-0.48c0.2,-0.24 0.41,-0.43 0.58,-0.73c-3.7,5.59 -2.44,3.76 -1.66,2.45c0.14,-0.31 0.3,-0.59 0.42,-0.94c0.12,-0.34 0.25,-0.65 0.34,-1.03c0.1,-0.35 0.19,-0.71 0.29,-1.06c0.07,-0.37 0.17,-0.7 0.21,-1.11c0.04,-0.39 0.11,-0.76 0.13,-1.18c0,-0.43 0.04,-0.82 0.01,-1.29c-0.04,-0.45 -0.05,-0.88 -0.12,-1.36c-0.07,-0.46 -0.11,-0.91 -0.2,-1.38c-0.09,-0.46 -0.16,-0.91 -0.26,-1.37c-0.1,-0.42 -0.18,-0.84 -0.3,-1.27c-0.09,-0.36 -0.17,-0.71 -0.26,-1.07c-0.07,-0.28 -0.14,-0.57 -0.2,-0.85c-0.05,-0.21 -0.1,-0.41 -0.14,-0.62c-0.04,-0.14 -0.06,-0.27 -0.11,-0.41c0.25,-0.43 0.99,-5.94 2.39,-3.07c0.05,0.12 0.12,0.24 0.15,0.38c0.07,0.2 0.14,0.41 0.2,0.61c0.11,0.32 0.21,0.63 0.32,0.95c0.14,0.43 0.28,0.86 0.41,1.29c0.18,0.48 0.33,0.96 0.52,1.42c0.2,0.47 0.39,0.96 0.6,1.42c0.22,0.45 0.42,0.92 0.65,1.35c0.22,0.41 0.43,0.84 0.66,1.23c0.22,0.35 0.43,0.73 0.66,1.06c0.26,0.34 0.51,0.76 0.78,1.02c0.29,0.3 0.58,0.65 0.87,0.9c0.27,0.22 0.55,0.5 0.82,0.66c0.27,0.13 0.55,0.35 0.81,0.41c0.26,0.05 0.54,0.17 0.78,0.16c0.24,-0.03 0.51,0.02 0.72,-0.1c0.22,-0.13 0.47,-0.2 0.65,-0.4c0.21,-0.23 0.43,-0.41 0.61,-0.69c-0.54,0.81 -2.14,3.27 -1.61,2.45c0.16,-0.3 0.34,-0.55 0.48,-0.89c0.13,-0.32 0.28,-0.61 0.39,-0.98c0.1,-0.35 0.23,-0.67 0.29,-1.07c0.06,-0.4 0.15,-0.76 0.17,-1.19c0.03,-0.43 0.08,-0.84 0.07,-1.31c-0.02,-0.48 0,-0.93 -0.06,-1.44c-0.04,-0.49 -0.08,-0.98 -0.12,-1.48c-0.06,-0.47 -0.1,-0.93 -0.16,-1.41c-0.07,-0.45 -0.12,-0.89 -0.22,-1.36c-0.08,-0.43 -0.15,-0.85 -0.25,-1.29c-0.09,-0.4 -0.16,-0.8 -0.26,-1.2c-0.1,-0.36 -0.18,-0.71 -0.29,-1.07c-0.09,-0.3 -0.18,-0.6 -0.28,-0.9c-0.07,-0.21 -0.14,-0.44 -0.22,-0.65c-0.05,-0.12 -0.09,-0.25 -0.14,-0.36c0.03,0.05 0.06,0.09 0.09,0.14c0.75,-1.05 3.61,-1.11 2.41,-1.23c0.05,0.16 -0.1,-0.2 -0.05,-0.04c0.09,0.3 0.14,-0.93 0.23,-0.63c0.13,0.41 0.25,0.82 0.39,1.23c0.19,0.53 0.37,1.06 0.57,1.58c0.24,0.59 0.45,1.19 0.72,1.76c0.27,0.62 0.54,1.24 0.83,1.84c0.28,0.55 0.53,1.12 0.82,1.65c0.26,0.45 0.5,0.93 0.78,1.35c0.24,0.35 0.48,0.75 0.73,1.06c0.24,0.28 0.48,0.62 0.73,0.86c0.22,0.18 0.45,0.46 0.67,0.55c0.22,0.08 0.45,0.25 0.65,0.24c0.2,-0.01 0.44,0.06 0.62,-0.03c0.18,-0.11 0.38,-0.15 0.53,-0.32c-0.57,0.89 -1.1,1.87 -1.71,2.69c0.12,-0.26 0.29,-0.45 0.38,-0.78c0.08,-0.35 0.21,-0.63 0.25,-1.04c0.04,-0.4 0.11,-0.76 0.11,-1.19c0.02,-0.42 0.05,-0.81 0.04,-1.25l0.03,-1.2c0.01,-0.35 0.02,-0.71 0.02,-1.07c0.02,-0.31 0.04,-0.61 0.05,-0.92c-0.08,-0.47 -0.07,-0.92 -0.25,-1.43c-0.15,-0.56 -0.3,-1.11 -0.44,-1.67c-0.13,-0.49 -0.25,-0.98 -0.37,-1.48l-0.3,-1.26c-0.08,-0.35 -0.16,-0.7 -0.24,-1.06c-0.07,-0.29 -0.13,-0.58 -0.2,-0.87c-0.05,-0.23 -0.09,-0.46 -0.14,-0.69c-0.04,-0.18 -0.08,-0.35 -0.13,-0.53c-0.03,-0.12 -0.06,-0.25 -0.09,-0.37c-0.02,-0.04 -0.03,-0.09 -0.04,-0.14l0.29,-1.02Z" style="fill-rule:nonzero;stroke:#000;stroke-width:3px;"/><path id="path22412" d="M240.31,137.72l-14.27,0l1.02,4.34l14.27,-0.26l-1.02,-4.08Z" style="fill:#b7b7b7;stroke:#000;stroke-width:1px;"/><path id="path22414" d="M183.17,107.54l0.55,0c0.21,-0.01 0.42,0.06 0.63,0.09c0.27,0.04 0.51,0.18 0.76,0.27c0.27,0.12 0.51,0.28 0.77,0.41c0.28,0.18 0.56,0.36 0.85,0.54c0.32,0.21 0.62,0.43 0.94,0.65c0.34,0.23 0.66,0.5 0.99,0.75c0.34,0.28 0.71,0.52 1.07,0.79c0.39,0.27 0.81,0.49 1.21,0.74c0.44,0.29 0.92,0.51 1.38,0.76c0.51,0.28 1.05,0.52 1.57,0.78c0.56,0.28 1.14,0.51 1.72,0.77c0.59,0.26 1.21,0.47 1.82,0.7c0.66,0.24 1.34,0.44 2,0.66c0.69,0.22 1.4,0.4 2.1,0.6c0.73,0.2 1.47,0.37 2.21,0.56c0.77,0.19 1.55,0.34 2.32,0.51c0.81,0.17 1.63,0.32 2.45,0.47c0.81,0.16 1.64,0.26 2.46,0.38c0.8,0.11 1.61,0.14 2.42,0.2c0.79,0.05 1.58,0.04 2.37,0.05c0.76,0.01 1.51,-0.1 2.26,-0.16c0.74,-0.08 1.47,-0.22 2.2,-0.34c0.74,-0.13 1.47,-0.28 2.2,-0.42c0.74,-0.13 1.45,-0.35 2.18,-0.53c0.74,-0.21 1.48,-0.38 2.23,-0.57c0.76,-0.18 1.53,-0.35 2.3,-0.52c0.79,-0.17 1.59,-0.32 2.38,-0.47c0.82,-0.16 1.64,-0.3 2.47,-0.44c0.82,-0.13 1.63,-0.32 2.44,-0.49c0.77,-0.17 1.52,-0.43 2.28,-0.67c0.76,-0.21 1.49,-0.51 2.23,-0.78c0.72,-0.26 1.39,-0.64 2.08,-0.97c1.55,-0.87 -3.09,1.78 -4.64,2.66c0.63,-0.39 1.21,-0.83 1.81,-1.26c0.6,-0.42 1.13,-0.92 1.7,-1.38c0.55,-0.47 1.04,-1.01 1.56,-1.52c0.51,-0.54 0.97,-1.11 1.46,-1.66c0.47,-0.58 0.94,-1.15 1.42,-1.72c0.47,-0.58 0.98,-1.12 1.47,-1.68c0.5,-0.57 1.02,-1.12 1.53,-1.68c0.51,-0.58 1.1,-1.07 1.65,-1.6c0.57,-0.53 1.2,-0.99 1.8,-1.47c0.62,-0.49 1.28,-0.91 1.94,-1.36c2.8,-1.8 5.77,-3.34 8.66,-4.98c0.75,-0.39 1.54,-0.69 2.32,-1.01c0.82,-0.34 1.68,-0.59 2.53,-0.86c0.92,-0.29 1.85,-0.54 2.78,-0.8c0.98,-0.28 1.96,-0.5 2.95,-0.73c1.02,-0.24 2.05,-0.46 3.07,-0.69c1.03,-0.22 2.06,-0.42 3.09,-0.62c0.34,-0.07 0.68,-0.14 1.02,-0.21l-6.08,4.61c-0.35,0.07 -0.69,0.14 -1.03,0.2c-1.03,0.21 -2.05,0.42 -3.08,0.64c-1.02,0.23 -2.04,0.45 -3.06,0.7c-0.98,0.24 -1.97,0.47 -2.94,0.76c-0.92,0.27 -1.85,0.52 -2.77,0.82c-0.84,0.29 -1.68,0.56 -2.5,0.92c-0.76,0.34 -1.54,0.66 -2.28,1.06c1.48,-0.87 5.93,-3.47 4.46,-2.59c-0.66,0.43 -1.33,0.83 -1.96,1.3c-0.61,0.47 -1.24,0.91 -1.81,1.42c-0.57,0.51 -1.16,0.99 -1.68,1.53c-0.52,0.56 -1.05,1.09 -1.54,1.67c-0.49,0.55 -1,1.09 -1.48,1.65c-0.47,0.57 -0.96,1.14 -1.42,1.71c-0.48,0.57 -0.93,1.16 -1.45,1.7c-0.51,0.53 -0.98,1.1 -1.53,1.59c-0.55,0.48 -1.08,1 -1.67,1.44c-0.59,0.44 -1.17,0.9 -1.79,1.32c-2.82,1.65 -5.57,3.45 -8.5,4.91c-0.71,0.31 -1.4,0.67 -2.13,0.91c-0.75,0.26 -1.49,0.53 -2.25,0.75c-0.77,0.21 -1.53,0.46 -2.32,0.61c-0.82,0.15 -1.64,0.32 -2.46,0.46c-0.82,0.14 -1.64,0.29 -2.46,0.45c-0.79,0.16 -1.58,0.31 -2.37,0.49c-0.77,0.18 -1.54,0.35 -2.3,0.54c-0.74,0.19 -1.48,0.37 -2.22,0.57c-0.73,0.17 -1.46,0.38 -2.2,0.5c-0.74,0.14 -1.48,0.28 -2.22,0.4c-0.75,0.1 -1.48,0.24 -2.23,0.3c-0.77,0.04 -1.53,0.13 -2.3,0.09c-0.8,-0.02 -1.6,-0.02 -2.4,-0.08c-0.81,-0.08 -1.63,-0.13 -2.45,-0.25c-0.83,-0.13 -1.66,-0.24 -2.48,-0.41c-0.82,-0.16 -1.65,-0.31 -2.46,-0.48c-0.78,-0.18 -1.56,-0.34 -2.34,-0.53c-0.74,-0.19 -1.49,-0.37 -2.22,-0.58c-0.71,-0.2 -1.42,-0.39 -2.12,-0.62c-0.68,-0.22 -1.36,-0.43 -2.02,-0.68c-0.62,-0.24 -1.25,-0.47 -1.86,-0.74c-0.58,-0.26 -1.16,-0.51 -1.73,-0.79c-0.53,-0.27 -1.07,-0.52 -1.6,-0.8c-0.47,-0.26 -0.94,-0.51 -1.4,-0.79c-0.42,-0.26 -0.85,-0.49 -1.25,-0.79c-0.36,-0.27 -0.74,-0.53 -1.09,-0.81c-0.33,-0.25 -0.64,-0.51 -0.98,-0.73c-0.31,-0.2 -0.61,-0.41 -0.92,-0.6c-0.28,-0.17 -0.54,-0.36 -0.83,-0.5c-0.24,-0.11 -0.47,-0.26 -0.73,-0.33c-0.21,-0.04 -0.43,-0.13 -0.65,-0.12c-0.19,0 -0.38,-0.01 -0.57,0c-0.14,0 -0.28,0 -0.42,0.01l-0.15,0l6.28,-4.56Z" style="fill-rule:nonzero;stroke:#000;stroke-width:3.45px;stroke-linejoin:round;stroke-miterlimit:2;"/><path id="path23301" d="M172.52,123.66l43.98,-14.73l73.76,-16.98l-0.12,-2.97l-2.35,-5.35l-3.09,-2.84l-8.52,-2.12l-9.46,-1.09l-16.71,3.18l-19.56,6.39l-15.71,3.52l-20.09,5.3l-17.22,3.12l-5.8,3.3l-3.75,5.11l-0.76,5.49l0.25,5.97l2.59,2.83l2.56,1.87Z" style="fill:#555c53;stroke:#000;stroke-width:3px;"/><g id="g3651"><path id="path3647" d="M745.44,487.795l-48.343,-52.5l33.798,62.857l-41.379,-58.148l25.649,66.595l-33.762,-62.867l17.103,69.281l-25.619,-66.605l8.285,70.885l-17.069,-69.292l-0.664,71.355l-8.251,-70.885l-9.602,70.722l0.698,-71.365l-18.39,68.954l9.638,-70.711l-26.887,66.105l18.424,-68.945l-34.961,62.214l26.92,-66.095l-42.483,57.352l34.991,-62.204l-49.335,51.571l42.511,-57.321l-55.408,44.972l49.36,-51.54l-60.608,37.68l55.43,-44.952l-64.853,29.784l60.627,-37.649l-68.075,21.419l64.868,-29.754l-70.222,12.727l68.084,-21.388l-71.263,3.82l70.23,-12.686l-71.181,-5.148l71.266,-3.779l-69.975,-14.024l71.178,5.179l-67.665,-22.685l69.968,14.054l-64.288,-30.979l67.653,22.716l-59.897,-38.803l64.272,31.02l-54.563,-46.004l59.879,38.834l-48.367,-52.48l54.54,46.024l-41.41,-58.117l48.342,52.5l-33.798,-62.857l41.381,58.138l-25.654,-66.595l33.767,62.877l-17.104,-69.287l25.62,66.611l-8.286,-70.885l17.07,69.291l0.664,-71.361l8.251,70.892l9.602,-70.721l-0.698,71.364l18.389,-68.958l-9.637,70.715l26.89,-66.109l-18.427,68.948l34.963,-62.213l-26.922,66.085l42.478,-57.342l-34.983,62.203l49.334,-51.57l-42.511,57.321l55.401,-44.972l-49.354,51.539l60.609,-37.679l-55.431,44.952l64.849,-29.784l-60.62,37.649l68.066,-21.419l-64.859,29.753l70.221,-12.726l-68.086,21.388l71.263,-3.82l-70.232,12.685l71.182,5.148l-71.264,3.779l69.977,14.024l-71.182,-5.178l67.668,22.685l-69.976,-14.054l64.297,30.979l-67.658,-22.716l59.895,38.803l-64.266,-31.02l54.563,46.004l-59.885,-38.834l48.374,52.48l-54.543,-46.035l41.408,58.128Z" style="fill-rule:nonzero;stroke:#000;stroke-width:7.76px;"/><path id="path1871" d="M790.201,377.616c0.003,0.397 0.005,0.794 0.005,1.191c0,73.777 -60.712,134.487 -134.493,134.487c-73.781,0 -134.494,-60.71 -134.494,-134.487c0,-0.397 0.002,-0.794 0.005,-1.191c-0.003,-0.397 -0.005,-0.794 -0.005,-1.191c0,-73.777 60.713,-134.487 134.494,-134.487c73.781,0 134.493,60.71 134.493,134.487c0,0.397 -0.002,0.794 -0.005,1.191Z" style="stroke:#000;stroke-width:1.02px;"/><path id="path2758" d="M757.798,377.56c0.002,0.301 0.004,0.602 0.004,0.903c0,55.945 -46.038,101.98 -101.985,101.98c-55.947,0 -101.985,-46.035 -101.985,-101.98c0,-0.301 0.001,-0.602 0.004,-0.903c-0.003,-0.301 -0.004,-0.602 -0.004,-0.903c0,-55.945 46.038,-101.98 101.985,-101.98c55.947,0 101.985,46.035 101.985,101.98c0,0.301 -0.002,0.602 -0.004,0.903Z" style="fill:#fff;stroke:#000;stroke-width:0.77px;"/></g><path id="rect8119" d="M503.218,72.203l-23.383,10.758l52.452,114.013l23.383,-10.758l-52.452,-114.013Z" style="stroke:#000;stroke-width:3px;"/><path id="rect6343" d="M536.648,145.346l-23.384,10.758l52.453,114.013l23.383,-10.758l-52.452,-114.013Z" style="stroke:#000;stroke-width:3px;"/><path id="path3684" d="M665.98,382.74l-5.41,-10.74l-17.81,-9.01l-50.6,-103.96l1.04,-27.38l-10.05,2.08l-0.69,18.36l-22.52,11.79l71.04,145.89l28.55,-11.44l-4.64,-10.05l11.09,-5.54Z" style="fill:#616369;stroke:#000;stroke-width:3px;"/><path id="path4571" d="M660.226,380.298c0,1.516 -1.249,2.763 -2.768,2.763c-1.519,0 -2.768,-1.247 -2.768,-2.763c0,-1.515 1.249,-2.762 2.768,-2.762c1.519,0 2.768,1.247 2.768,2.762Z" style="fill-rule:nonzero;stroke:#000;stroke-width:3.51px;"/><path id="rect8115" d="M531.786,131.456l-25.949,12.086l6.249,13.417l25.949,-12.086l-6.249,-13.417Z" style="stroke:#000;stroke-width:3px;stroke-linejoin:round;"/><path id="rect8117" d="M498.033,58.109l-25.95,12.087l6.249,13.416l25.949,-12.086l-6.248,-13.417Z" style="stroke:#000;stroke-width:3px;stroke-linejoin:round;"/><path id="path8121" d="M470.84,70.91l27.96,-12.93l5.15,-8.13l2.88,-13.16l-13.68,-17.43l-14.91,13.02l-19.01,14.33l11.61,24.3Z" style="fill:#616369;stroke:#000;stroke-width:1.7px;"/><path id="path8123" d="M473.042,47.934c0.803,1.919 -0.115,4.158 -2.034,4.961c-1.919,0.802 -4.158,-0.116 -4.961,-2.035c-0.802,-1.919 0.116,-4.158 2.035,-4.96c1.919,-0.803 4.158,0.115 4.96,2.034Z" style="fill:#616369;fill-rule:nonzero;stroke:#000;stroke-width:1.42px;stroke-linejoin:round;"/><path id="path11711" d="M477.422,58.864c0.803,1.919 -0.115,4.158 -2.034,4.961c-1.919,0.802 -4.158,-0.116 -4.961,-2.035c-0.802,-1.919 0.116,-4.158 2.035,-4.96c1.919,-0.803 4.158,0.115 4.96,2.034Z" style="fill:#616369;fill-rule:nonzero;stroke:#000;stroke-width:1.38px;stroke-linejoin:round;"/><path id="path25083" d="M501.866,38.38c0,5.563 -4.884,10.142 -10.818,10.142c-5.935,0 -10.819,-4.579 -10.819,-10.142c0,-5.564 4.884,-10.142 10.819,-10.142c5.934,0 10.818,4.578 10.818,10.142Z" style="fill-rule:nonzero;stroke:#000;stroke-width:1.7px;stroke-linejoin:round;stroke-miterlimit:2;"/><path id="rect26861" d="M531.385,23.14l-27.833,-12.818l-3.469,7.531l27.834,12.818l3.468,-7.531Z" style="stroke:#000;stroke-width:1.7px;stroke-linejoin:round;stroke-miterlimit:2;"/><path id="path25974" d="M513.681,16.936c0,8.573 -7.524,15.628 -16.669,15.628c-9.144,0 -16.669,-7.055 -16.669,-15.628c0,-8.573 7.525,-15.627 16.669,-15.627c9.145,0 16.669,7.054 16.669,15.627Z" style="fill:#666;fill-rule:nonzero;stroke:#000;stroke-width:2.62px;stroke-linejoin:round;stroke-miterlimit:2;"/><path id="path25970" d="M504.39,27.158c0,5.563 -4.884,10.142 -10.819,10.142c-5.934,0 -10.818,-4.579 -10.818,-10.142c0,-5.564 4.884,-10.142 10.818,-10.142c5.935,0 10.819,4.578 10.819,10.142Z" style="fill-rule:nonzero;stroke:#000;stroke-width:1.7px;stroke-linejoin:round;stroke-miterlimit:2;"/><path id="path25972" d="M507.551,16.704c0,5.563 -4.883,10.142 -10.818,10.142c-5.935,0 -10.818,-4.579 -10.818,-10.142c0,-5.564 4.883,-10.142 10.818,-10.142c5.935,0 10.818,4.578 10.818,10.142Z" style="fill-rule:nonzero;stroke:#000;stroke-width:1.7px;stroke-linejoin:round;stroke-miterlimit:2;"/></g></svg>